<?xml version="1.0" encoding="UTF-8" standalone="no"?>

<!-- Created with PainterSVG V3.50 -->

<svg xmlns="http://www.w3.org/2000/svg" xmlns:xlink="http://www.w3.org/1999/xlink" xmlns:psvg="http://www.paintersvg.com/namespace.html" id="null" width="245" height="245" viewBox="0 0 245 245">
	<defs></defs>

	<!-- background circule -->
	<path d=" M 124.5004,26.4467 C 69.9091,26.4467 25.2437,71.1121 25.2437,125.7032 25.2437,180.2946 69.9091,224.9598 124.5004,224.9598 179.0915,224.9598 223.7571,180.2946 223.7571,125.7032 223.7571,71.1121 179.0915,26.4467 124.5004,26.4467 Z" style="fill: #626b8a;fill-opacity:1;stroke:#FFFFFF;stroke-width:0.0;stroke-opacity:1;stroke-linecap:butt;stroke-miterlimit:4;stroke-dashoffset:0;"></path>

	<!-- right-up leaf -->
	<path d=" M 178.9731,45.0771 Q 146.6135,115.2016 202.7285,168.9687 226.8188,133.5239 211.4074,86.4683 200.0499,58.4105 178.9731,45.0771 Z" style="fill:#34C9CF;fill-opacity:1;stroke: #34c9cf;stroke-width:0.0;stroke-opacity:1;stroke-linecap:butt;stroke-linejoin:miter;stroke-miterlimit:4;stroke-dashoffset:0;"></path>
	<!-- right-bottom leaf -->
	<path d=" M 215.1576,103.1771 Q 116.1825,100.9855 125.5512,213.8659 142.0462,214.4365 161.4261,205.9953 184.5924,194.3311 196.0425,178.8761 209.9077,162.052 215.402,142.6254 219.3298,123.3808 215.1576,103.1771 Z" style="fill:#FFFFFF;fill-opacity:0.21;stroke:#FFFFFF;stroke-width:0.0;stroke-opacity:0.2;stroke-linecap:butt;stroke-linejoin:miter;stroke-miterlimit:4;stroke-dashoffset:0;"></path>
	<!-- bottom leaf -->
	<path d=" M 210.4618,156.0955 Q 116.4753,120.2917 85.7601,205.8046 114.5294,222.2247 157.4138,208.2893 195.1641,192.7673 210.4618,156.0955 Z" style="fill: #8480bb;fill-opacity:1;stroke: #8480bb;stroke-width:0.0;stroke-opacity:1;stroke-linecap:butt;stroke-linejoin:miter;stroke-miterlimit:4;stroke-dashoffset:0;"></path>
	<!-- left-bottom leaf -->
	<path d=" M 29.5493,103.2522 Q 69.9593,96.1641 92.4388,119.678 113.9773,144.6751 102.6878,213.0033 60.7992,202.3801 40.87,168.8929 24.9295,143.8497 29.5493,103.2522 Z" style="fill: #b1d349;fill-opacity:1;stroke: #b1d349;stroke-width:0.0;stroke-opacity:1;stroke-linecap:butt;stroke-linejoin:miter;stroke-miterlimit:4;stroke-dashoffset:0;"></path>
	<!-- left-up leaf -->
	<path d=" M 28.4909,112.1211 Q 30.5837,74.9459 67.2064,45.1699 106.1012,19.4448 146.8944,30.4314 105.0249,102.1808 28.4909,112.1211 Z" style="fill:#FFFFFF;fill-opacity:0.31;stroke:#FFFFFF;stroke-width:0.0;stroke-opacity:0.31;stroke-linecap:butt;stroke-linejoin:miter;stroke-miterlimit:4;stroke-dashoffset:0;"></path>

	<!-- first alef -->
	<path d=" M 176.0693,53.8613 175.3831,53.8448 164.964,63.08 165.0415,132.1913 Q 165.2482,149.7941 183.8923,155.0909 191.0403,156.8922 200.0001,154.933 L 211.4346,151.9911 213.9496,147.3237 Q 207.2702,149.2421 199.2689,147.2068 175.5905,139.4953 176.1716,121.9721 L 176.0693,53.8613 Z" style="fill:#FFFFFF;fill-opacity:1;stroke:#FFFFFF;stroke-width:0.0;stroke-opacity:1;stroke-linecap:butt;stroke-linejoin:miter;stroke-miterlimit:4;stroke-dashoffset:0;"></path>
	<path d=" M 186.7357,162.0632 187.0793,162.091 Q 185.8661,168.0647 182.9382,170.7092 180.0063,172.7004 173.8888,170.9248 170.9653,169.711 169.6361,167.4675 L 167.8129,170.8849 C 167.4256,171.7289 167.3759,171.6051 167.7891,172.0614 Q 169.584,174.0324 172.2684,175.5733 174.7952,176.7055 177.8339,176.3448 182.1916,175.481 187.0441,173.3756 L 187.4626,173.431 Q 184.887,178.1523 183.2439,181.1843 168.0695,182.2164 164.9112,186.0991 163.6015,187.6914 164.3276,185.477 165.9484,182.1459 168.1597,180.2405 L 168.1469,179.9655 Q 165.2256,177.0042 163.6231,175.2448 162.5447,173.9956 163.3099,172.1838 166.7666,165.6036 169.1712,161.8732 171.1649,160.2745 173.3887,161.8069 175.5973,164.7721 177.7907,165.4382 180.2585,166.3764 182.9206,165.5273 185.4914,164.6358 186.7357,162.0632 Z" style="fill:#FFFFFF;fill-opacity:1;stroke:#FFFFFF;stroke-width:0.0;stroke-opacity:1;stroke-linecap:butt;stroke-linejoin:miter;stroke-miterlimit:4;stroke-dashoffset:0;"></path>
	<!-- thaaa's dots -->
	<path d=" M 140.6771,77.0662 C 137.3166,77.0662 134.5671,79.8157 134.5671,83.1762 134.5671,86.5367 137.3166,89.2862 140.6771,89.2862 144.0377,89.2862 146.7872,86.5367 146.7872,83.1762 146.7872,79.8157 144.0377,77.0662 140.6771,77.0662 Z" style="fill:#FFFFFF;fill-opacity:1;stroke:#FFFFFF;stroke-width:0.0;stroke-opacity:1;stroke-linecap:butt;stroke-linejoin:miter;stroke-miterlimit:4;stroke-dashoffset:0;"></path>
	<path d=" M 133.4516,88.3546 C 130.0911,88.3546 127.3416,91.1041 127.3416,94.4647 127.3416,97.8252 130.0911,100.5747 133.4516,100.5747 136.8121,100.5747 139.5616,97.8252 139.5616,94.4647 139.5616,91.1041 136.8121,88.3546 133.4516,88.3546 Z" style="fill:#FFFFFF;fill-opacity:1;stroke:#FFFFFF;stroke-width:0.0;stroke-opacity:1;stroke-linecap:butt;stroke-linejoin:miter;stroke-miterlimit:4;stroke-dashoffset:0;"></path>
	<path d=" M 148.1941,88.472 C 144.8336,88.472 142.0841,91.2215 142.0841,94.582 142.0841,97.9425 144.8336,100.692 148.1941,100.692 151.5547,100.692 154.3042,97.9425 154.3042,94.582 154.3042,91.2215 151.5547,88.472 148.1941,88.472 Z" style="fill:#FFFFFF;fill-opacity:1;stroke:#FFFFFF;stroke-width:0.0;stroke-opacity:1;stroke-linecap:butt;stroke-linejoin:miter;stroke-miterlimit:4;stroke-dashoffset:0;"></path>
	<!-- thaaa & raaa -->
	<path d=" M 140.9529,125.0815 Q 139.3288,121.4914 141.0441,119.05 L 150.0247,105.035 150.6366,105.0946 C 149.5017,106.3088 148.8298,109.4755 151.3792,113.3057 Q 155.2193,119.2136 159.1409,127.1377 162.5492,134.8201 160.008,143.7544 159.1757,146.5535 149.9526,162.0086 149.3676,162.681 149.0417,161.9113 146.9495,154.9604 141.302,151.0343 C 139.2746,149.7348 132.3667,150.0044 129.105,150.0505 Q 127.1785,170.0237 112.9378,176.9756 106.796,179.359 98.2706,176.6533 88.4601,172.809 79.7094,168.0795 L 79.9975,167.0761 Q 87.57,169.9831 93.8707,170.5042 102.3765,171.0362 108.8863,168.1827 120.5358,163.8425 125.1233,151.0349 126.6849,147.2418 125.0424,144.9875 C 119.9076,138.1558 107.9539,130.7715 105.991,124.9472 Q 105.1977,122.8517 106.0037,120.0348 106.9736,116.308 114.0332,104.0713 L 114.6512,104.1338 C 113.4093,105.4147 113.6591,109.4508 114.8993,111.3723 117.4404,116.4408 127.0801,122.9935 130.0204,131.0226 130.3488,132.0652 130.3235,133.4826 130.3617,134.4136 130.4803,135.3659 130.5641,135.7419 131.3469,135.7923 Q 135.2137,135.5645 140.4582,136.0077 148.6093,137.3263 151.0378,146.9967 151.3387,147.6996 151.6765,146.9194 152.73,143.6764 152.1385,140.2175 C 149.5916,133.2682 142.4642,128.1998 140.9529,125.0815 Z" style="fill:#FFFFFF;fill-opacity:1;stroke:#FFFFFF;stroke-width:0.0;stroke-opacity:1;stroke-linecap:butt;stroke-linejoin:miter;stroke-miterlimit:4;stroke-dashoffset:0;"></path>
	<!-- second alef -->
	<path d=" M 97.3759,54.4544 96.5479,54.3576 86.2706,63.6731 86.3482,132.7845 Q 85.8349,150.157 121.9669,150.6885 L 121.9876,150.0302 Q 96.7468,139.6127 97.4782,122.5653 L 97.3759,54.4544 Z" style="fill:#FFFFFF;fill-opacity:1;stroke:#FFFFFF;stroke-width:0.0;stroke-opacity:1;stroke-linecap:butt;stroke-linejoin:miter;stroke-miterlimit:4;stroke-dashoffset:0;"></path>
	<!-- Hamza -->
	<path d=" M 79.9622,110.016 81.0319,110.0024 Q 77.2398,125.9969 67.7508,130.106 63.4742,131.7633 58.7924,129.8264 53.9658,127.7748 49.0033,122.9616 48.4949,122.6333 47.9865,122.9852 46.4926,124.6497 45.9576,127.0231 48.958,130.621 52.2419,133.0096 C 53.7982,134.5144 57.5247,135.7075 59.1796,136.0065 L 82.0537,135.9782 73.6171,150.1979 Q 44.7787,148.4475 34.2819,156.4485 33.0647,156.3223 33.0211,154.5388 C 34.5418,152.7064 35.9971,149.1988 38.6998,147.0904 40.2791,145.9354 40.9608,145.0186 44.5159,144.9865 Q 45.7232,143.822 44.0447,143.032 40.6606,140.5659 37.7588,137.9277 35.9023,135.4742 37.0926,131.6018 L 51.5959,108.009 Q 53.8044,106.9244 55.9717,107.9968 60.1924,114.2306 66.8022,116.8587 69.0122,117.8106 72.4424,116.7975 78.1365,115.0834 79.9622,110.016 Z" style="fill:#FFFFFF;fill-opacity:1;stroke:#FFFFFF;stroke-width:0.0;stroke-opacity:1;stroke-linecap:butt;stroke-linejoin:miter;stroke-miterlimit:4;stroke-dashoffset:0;"></path>

	<!-- most z-indexed white circule -->
	<path d=" M 122.3802,24.7373 C 69.2206,24.7373 25.7264,68.2316 25.7264,121.3911 25.7264,174.5507 69.2206,218.0449 122.3802,218.0449 175.5396,218.0449 219.034,174.5507 219.034,121.3911 219.034,68.2316 175.5396,24.7373 122.3802,24.7373 Z" style="fill:none;stroke:#FFFFFF;stroke-width:8;stroke-opacity:1;stroke-linecap:butt;stroke-linejoin:miter;stroke-miterlimit:4;stroke-dashoffset:0;"></path>
	<!-- outer gray circule -->
	<path d=" M 122.0513,11.1643 C 61.4334,11.1643 11.837,60.7608 11.837,121.3787 11.837,181.9966 61.4334,231.5931 122.0513,231.5931 182.6692,231.5931 232.2657,181.9966 232.2657,121.3787 232.2657,60.7608 182.6692,11.1643 122.0513,11.1643 Z" style="fill:none;stroke: #cecece;stroke-width:20;stroke-opacity:1;stroke-linecap:butt;stroke-linejoin:miter;stroke-miterlimit:4;stroke-dashoffset:0;"></path>

</svg>